<svg width="150" height="47" viewBox="0 0 150 47" fill="none" xmlns="http://www.w3.org/2000/svg">
<path d="M46.7202 26.9394C45.272 26.9394 43.9685 26.6149 42.81 25.966C41.6514 25.2985 40.7372 24.3622 40.0674 23.157C39.4157 21.9518 39.0898 20.5613 39.0898 18.9853C39.0898 17.4093 39.4247 16.0188 40.0945 14.8136C40.7825 13.6084 41.7148 12.6814 42.8914 12.0325C44.0681 11.365 45.3806 11.0312 46.8288 11.0312C48.277 11.0312 49.5895 11.365 50.7662 12.0325C51.9428 12.6814 52.8661 13.6084 53.5359 14.8136C54.2238 16.0188 54.5677 17.4093 54.5677 18.9853C54.5677 20.5613 54.2147 21.9518 53.5087 23.157C52.8208 24.3622 51.8795 25.2985 50.6847 25.966C49.508 26.6149 48.1865 26.9394 46.7202 26.9394ZM46.7202 23.5464C47.4081 23.5464 48.0507 23.3795 48.6481 23.0458C49.2636 22.6935 49.7524 22.1743 50.1145 21.4883C50.4765 20.8023 50.6575 19.968 50.6575 18.9853C50.6575 17.5206 50.2774 16.3988 49.5171 15.6201C48.7748 14.8229 47.8607 14.4242 46.7745 14.4242C45.6883 14.4242 44.7741 14.8229 44.0319 15.6201C43.3078 16.3988 42.9457 17.5206 42.9457 18.9853C42.9457 20.45 43.2987 21.581 44.0048 22.3783C44.7289 23.157 45.634 23.5464 46.7202 23.5464Z" fill="#2D0475"/>
<path d="M76.0384 11.0591C77.8849 11.0591 79.3694 11.6431 80.4917 12.8112C81.6322 13.9607 82.2025 15.5738 82.2025 17.6504V26.6891H78.4009V18.1788C78.4009 16.9736 78.1022 16.0558 77.5048 15.4254C76.9074 14.7765 76.0928 14.452 75.0609 14.452C74.029 14.452 73.2054 14.7765 72.5899 15.4254C71.9925 16.0558 71.6938 16.9736 71.6938 18.1788V26.6891H67.8922V18.1788C67.8922 16.9736 67.5935 16.0558 66.9961 15.4254C66.3987 14.7765 65.5841 14.452 64.5522 14.452C63.5023 14.452 62.6695 14.7765 62.054 15.4254C61.4566 16.0558 61.1579 16.9736 61.1579 18.1788V26.6891H57.3564V11.2816H61.1579V13.1449C61.6467 12.496 62.2713 11.9861 63.0316 11.6153C63.81 11.2445 64.6608 11.0591 65.5841 11.0591C66.7608 11.0591 67.8107 11.3186 68.734 11.8378C69.6572 12.3384 70.3723 13.0615 70.8791 14.0071C71.3679 13.1171 72.0739 12.4033 72.9972 11.8656C73.9385 11.3279 74.9523 11.0591 76.0384 11.0591Z" fill="#2D0475"/>
<path d="M89.6115 13.5065C90.1003 12.8019 90.7701 12.2179 91.6209 11.7543C92.4899 11.2723 93.4765 11.0312 94.5807 11.0312C95.866 11.0312 97.0246 11.3557 98.0565 12.0046C99.1064 12.6536 99.9301 13.5806 100.528 14.7858C101.143 15.9724 101.451 17.3537 101.451 18.9297C101.451 20.5057 101.143 21.9055 100.528 23.1292C99.9301 24.3344 99.1064 25.2707 98.0565 25.9381C97.0246 26.6056 95.866 26.9394 94.5807 26.9394C93.4765 26.9394 92.4989 26.7076 91.6481 26.2441C90.8154 25.7805 90.1365 25.1965 89.6115 24.492V34.0312H85.8099V11.2816H89.6115V13.5065ZM97.5677 18.9297C97.5677 18.0026 97.3776 17.2054 96.9975 16.5379C96.6354 15.8519 96.1466 15.3327 95.5311 14.9805C94.9337 14.6282 94.282 14.452 93.576 14.452C92.8881 14.452 92.2364 14.6375 91.6209 15.0083C91.0235 15.3606 90.5348 15.8797 90.1546 16.5657C89.7925 17.2517 89.6115 18.0583 89.6115 18.9853C89.6115 19.9123 89.7925 20.7189 90.1546 21.4049C90.5348 22.0909 91.0235 22.6193 91.6209 22.9901C92.2364 23.3424 92.8881 23.5186 93.576 23.5186C94.282 23.5186 94.9337 23.3331 95.5311 22.9623C96.1466 22.5915 96.6354 22.0631 96.9975 21.3771C97.3776 20.6911 97.5677 19.8753 97.5677 18.9297Z" fill="#2D0475"/>
<path d="M103.236 18.9297C103.236 17.3722 103.534 15.9909 104.132 14.7858C104.747 13.5806 105.571 12.6536 106.603 12.0046C107.653 11.3557 108.82 11.0312 110.106 11.0312C111.228 11.0312 112.206 11.263 113.038 11.7265C113.889 12.1901 114.568 12.7741 115.075 13.4787V11.2816H118.904V26.6891H115.075V24.4363C114.586 25.1594 113.907 25.762 113.038 26.2441C112.188 26.7076 111.201 26.9394 110.079 26.9394C108.811 26.9394 107.653 26.6056 106.603 25.9381C105.571 25.2707 104.747 24.3344 104.132 23.1292C103.534 21.9055 103.236 20.5057 103.236 18.9297ZM115.075 18.9853C115.075 18.0397 114.894 17.2332 114.532 16.5657C114.17 15.8797 113.681 15.3606 113.066 15.0083C112.45 14.6375 111.789 14.452 111.083 14.452C110.377 14.452 109.726 14.6282 109.128 14.9805C108.531 15.3327 108.042 15.8519 107.662 16.5379C107.3 17.2054 107.119 18.0026 107.119 18.9297C107.119 19.8567 107.3 20.6725 107.662 21.3771C108.042 22.0631 108.531 22.5915 109.128 22.9623C109.744 23.3331 110.395 23.5186 111.083 23.5186C111.789 23.5186 112.45 23.3424 113.066 22.9901C113.681 22.6193 114.17 22.1002 114.532 21.4327C114.894 20.7467 115.075 19.9309 115.075 18.9853Z" fill="#2D0475"/>
<path d="M128.373 26.9394C127.142 26.9394 126.038 26.7169 125.06 26.2719C124.083 25.8084 123.305 25.1872 122.725 24.4085C122.164 23.6298 121.856 22.7676 121.802 21.8221H125.631C125.703 22.4154 125.984 22.9067 126.473 23.2961C126.979 23.6854 127.604 23.8801 128.346 23.8801C129.07 23.8801 129.631 23.7318 130.03 23.4351C130.446 23.1385 130.654 22.7584 130.654 22.2949C130.654 21.7942 130.401 21.4234 129.894 21.1824C129.405 20.9228 128.618 20.6447 127.532 20.3481C126.409 20.0699 125.486 19.7826 124.762 19.4859C124.056 19.1893 123.44 18.735 122.915 18.1231C122.408 17.5113 122.155 16.6862 122.155 15.6479C122.155 14.7951 122.39 14.0163 122.861 13.3118C123.35 12.6072 124.038 12.051 124.925 11.6431C125.83 11.2352 126.889 11.0312 128.102 11.0312C129.894 11.0312 131.324 11.4948 132.392 12.4218C133.46 13.3303 134.049 14.5633 134.157 16.1207H130.518C130.464 15.5089 130.211 15.0268 129.758 14.6745C129.324 14.3037 128.735 14.1183 127.993 14.1183C127.305 14.1183 126.771 14.2481 126.391 14.5077C126.029 14.7672 125.848 15.1288 125.848 15.5923C125.848 16.1115 126.101 16.5101 126.608 16.7882C127.115 17.0478 127.903 17.3166 128.971 17.5947C130.057 17.8728 130.953 18.1602 131.659 18.4569C132.365 18.7535 132.971 19.2171 133.478 19.8475C134.003 20.4593 134.275 21.2751 134.293 22.2949C134.293 23.1848 134.049 23.9821 133.56 24.6866C133.089 25.3912 132.401 25.9474 131.496 26.3553C130.609 26.7447 129.568 26.9394 128.373 26.9394Z" fill="#2D0475"/>
<path d="M143.17 26.9394C141.939 26.9394 140.835 26.7169 139.857 26.2719C138.88 25.8084 138.101 25.1872 137.522 24.4085C136.961 23.6298 136.653 22.7676 136.599 21.8221H140.428C140.5 22.4154 140.781 22.9067 141.269 23.2961C141.776 23.6854 142.401 23.8801 143.143 23.8801C143.867 23.8801 144.428 23.7318 144.827 23.4351C145.243 23.1385 145.451 22.7584 145.451 22.2949C145.451 21.7942 145.198 21.4234 144.691 21.1824C144.202 20.9228 143.415 20.6447 142.328 20.3481C141.206 20.0699 140.283 19.7826 139.559 19.4859C138.853 19.1893 138.237 18.735 137.712 18.1231C137.205 17.5113 136.952 16.6862 136.952 15.6479C136.952 14.7951 137.187 14.0163 137.658 13.3118C138.147 12.6072 138.835 12.051 139.722 11.6431C140.627 11.2352 141.686 11.0312 142.899 11.0312C144.691 11.0312 146.121 11.4948 147.189 12.4218C148.257 13.3303 148.845 14.5633 148.954 16.1207H145.315C145.261 15.5089 145.008 15.0268 144.555 14.6745C144.121 14.3037 143.532 14.1183 142.79 14.1183C142.102 14.1183 141.568 14.2481 141.188 14.5077C140.826 14.7672 140.645 15.1288 140.645 15.5923C140.645 16.1115 140.898 16.5101 141.405 16.7882C141.912 17.0478 142.7 17.3166 143.768 17.5947C144.854 17.8728 145.75 18.1602 146.456 18.4569C147.162 18.7535 147.768 19.2171 148.275 19.8475C148.8 20.4593 149.072 21.2751 149.09 22.2949C149.09 23.1848 148.845 23.9821 148.357 24.6866C147.886 25.3912 147.198 25.9474 146.293 26.3553C145.406 26.7447 144.365 26.9394 143.17 26.9394Z" fill="#2D0475"/>
<mask id="path-2-inside-1_17924_1333" fill="white">
<path d="M18.2597 35.7698C14.5786 35.105 11.2631 33.129 8.92693 30.2076C6.59076 27.2862 5.39217 23.6173 5.55308 19.8802L9.69211 20.0584C9.57429 22.7947 10.4519 25.4811 12.1625 27.6202C13.873 29.7593 16.3007 31.2061 18.996 31.6929L18.2597 35.7698Z"/>
</mask>
<path d="M18.2597 35.7698C14.5786 35.105 11.2631 33.129 8.92693 30.2076C6.59076 27.2862 5.39217 23.6173 5.55308 19.8802L9.69211 20.0584C9.57429 22.7947 10.4519 25.4811 12.1625 27.6202C13.873 29.7593 16.3007 31.2061 18.996 31.6929L18.2597 35.7698Z" fill="#2D0475" stroke="#2D0475" stroke-width="20" mask="url(#path-2-inside-1_17924_1333)"/>
<mask id="path-3-inside-2_17924_1333" fill="white">
<path d="M5.7571 18.0007C6.14771 15.6641 7.06972 13.4485 8.45204 11.5246C9.83435 9.60066 11.64 8.01991 13.7299 6.90421C15.8197 5.78851 18.1379 5.16766 20.5056 5.08953C22.8733 5.01141 25.2273 5.47809 27.3862 6.45359L25.6802 10.2289C24.0995 9.51465 22.3759 9.17294 20.6422 9.23014C18.9085 9.28735 17.2112 9.74194 15.681 10.5589C14.1508 11.3758 12.8287 12.5332 11.8165 13.9419C10.8044 15.3506 10.1293 16.9729 9.84326 18.6838L5.7571 18.0007Z"/>
</mask>
<path d="M5.7571 18.0007C6.14771 15.6641 7.06972 13.4485 8.45204 11.5246C9.83435 9.60066 11.64 8.01991 13.7299 6.90421C15.8197 5.78851 18.1379 5.16766 20.5056 5.08953C22.8733 5.01141 25.2273 5.47809 27.3862 6.45359L25.6802 10.2289C24.0995 9.51465 22.3759 9.17294 20.6422 9.23014C18.9085 9.28735 17.2112 9.74194 15.681 10.5589C14.1508 11.3758 12.8287 12.5332 11.8165 13.9419C10.8044 15.3506 10.1293 16.9729 9.84326 18.6838L5.7571 18.0007Z" fill="#2D0475" stroke="#2D0475" stroke-width="20" mask="url(#path-3-inside-2_17924_1333)"/>
<mask id="path-4-inside-3_17924_1333" fill="white">
<path d="M29.3169 7.49932C32.7781 9.70267 35.2222 13.1907 36.1117 17.1962C37.0011 21.2016 36.263 25.3964 34.0596 28.8576L30.5648 26.6328C32.1781 24.0985 32.7186 21.0271 32.0673 18.0943C31.4161 15.1614 29.6264 12.6075 27.0921 10.9941L29.3169 7.49932Z"/>
</mask>
<path d="M29.3169 7.49932C32.7781 9.70267 35.2222 13.1907 36.1117 17.1962C37.0011 21.2016 36.263 25.3964 34.0596 28.8576L30.5648 26.6328C32.1781 24.0985 32.7186 21.0271 32.0673 18.0943C31.4161 15.1614 29.6264 12.6075 27.0921 10.9941L29.3169 7.49932Z" fill="#2D0475" stroke="#2D0475" stroke-width="20" mask="url(#path-4-inside-3_17924_1333)"/>
<path d="M22.2777 23.3825L21.8383 43.5883L27.963 36.4049L37.2658 36.8257L22.2777 23.3825Z" fill="#EB8600" stroke="#EB8600" stroke-width="2"/>
<path d="M28.5046 37.2531L21.4062 21.1328L20.6392 46.4392L28.5046 37.2531Z" fill="#FFA42B"/>
<path d="M45.28 38.2C45.28 37.6507 45.4027 37.16 45.648 36.728C45.8987 36.2907 46.2373 35.952 46.664 35.712C47.096 35.4667 47.5787 35.344 48.112 35.344C48.736 35.344 49.2827 35.504 49.752 35.824C50.2213 36.144 50.5493 36.5867 50.736 37.152H49.448C49.32 36.8853 49.1387 36.6853 48.904 36.552C48.6747 36.4187 48.408 36.352 48.104 36.352C47.7787 36.352 47.488 36.4293 47.232 36.584C46.9813 36.7333 46.784 36.9467 46.64 37.224C46.5013 37.5013 46.432 37.8267 46.432 38.2C46.432 38.568 46.5013 38.8933 46.64 39.176C46.784 39.4533 46.9813 39.6693 47.232 39.824C47.488 39.9733 47.7787 40.048 48.104 40.048C48.408 40.048 48.6747 39.9813 48.904 39.848C49.1387 39.7093 49.32 39.5067 49.448 39.24H50.736C50.5493 39.8107 50.2213 40.256 49.752 40.576C49.288 40.8907 48.7413 41.048 48.112 41.048C47.5787 41.048 47.096 40.928 46.664 40.688C46.2373 40.4427 45.8987 40.104 45.648 39.672C45.4027 39.24 45.28 38.7493 45.28 38.2ZM53.6606 41.072C53.234 41.072 52.85 40.9787 52.5086 40.792C52.1673 40.6 51.898 40.3307 51.7006 39.984C51.5086 39.6373 51.4126 39.2373 51.4126 38.784C51.4126 38.3307 51.5113 37.9307 51.7086 37.584C51.9113 37.2373 52.186 36.9707 52.5326 36.784C52.8793 36.592 53.266 36.496 53.6926 36.496C54.1193 36.496 54.506 36.592 54.8526 36.784C55.1993 36.9707 55.4713 37.2373 55.6686 37.584C55.8713 37.9307 55.9726 38.3307 55.9726 38.784C55.9726 39.2373 55.8686 39.6373 55.6606 39.984C55.458 40.3307 55.1806 40.6 54.8286 40.792C54.482 40.9787 54.0926 41.072 53.6606 41.072ZM53.6606 40.096C53.8633 40.096 54.0526 40.048 54.2286 39.952C54.41 39.8507 54.554 39.7013 54.6606 39.504C54.7673 39.3067 54.8206 39.0667 54.8206 38.784C54.8206 38.3627 54.7086 38.04 54.4846 37.816C54.266 37.5867 53.9966 37.472 53.6766 37.472C53.3566 37.472 53.0873 37.5867 52.8686 37.816C52.6553 38.04 52.5486 38.3627 52.5486 38.784C52.5486 39.2053 52.6526 39.5307 52.8606 39.76C53.074 39.984 53.3406 40.096 53.6606 40.096ZM56.5062 38.768C56.5062 38.32 56.5942 37.9227 56.7702 37.576C56.9515 37.2293 57.1942 36.9627 57.4982 36.776C57.8075 36.5893 58.1515 36.496 58.5302 36.496C58.8609 36.496 59.1489 36.5627 59.3942 36.696C59.6449 36.8293 59.8449 36.9973 59.9942 37.2V36.568H61.1222V41H59.9942V40.352C59.8502 40.56 59.6502 40.7333 59.3942 40.872C59.1435 41.0053 58.8529 41.072 58.5222 41.072C58.1489 41.072 57.8075 40.976 57.4982 40.784C57.1942 40.592 56.9515 40.3227 56.7702 39.976C56.5942 39.624 56.5062 39.2213 56.5062 38.768ZM59.9942 38.784C59.9942 38.512 59.9409 38.28 59.8342 38.088C59.7275 37.8907 59.5835 37.7413 59.4022 37.64C59.2209 37.5333 59.0262 37.48 58.8182 37.48C58.6102 37.48 58.4182 37.5307 58.2422 37.632C58.0662 37.7333 57.9222 37.8827 57.8102 38.08C57.7035 38.272 57.6502 38.5013 57.6502 38.768C57.6502 39.0347 57.7035 39.2693 57.8102 39.472C57.9222 39.6693 58.0662 39.8213 58.2422 39.928C58.4235 40.0347 58.6155 40.088 58.8182 40.088C59.0262 40.088 59.2209 40.0373 59.4022 39.936C59.5835 39.8293 59.7275 39.68 59.8342 39.488C59.9409 39.2907 59.9942 39.056 59.9942 38.784ZM61.9281 38.784C61.9281 38.3253 62.0214 37.9253 62.2081 37.584C62.3947 37.2373 62.6534 36.9707 62.9841 36.784C63.3147 36.592 63.6934 36.496 64.1201 36.496C64.6694 36.496 65.1227 36.6347 65.4801 36.912C65.8427 37.184 66.0854 37.568 66.2081 38.064H65.0001C64.9361 37.872 64.8267 37.7227 64.6721 37.616C64.5227 37.504 64.3361 37.448 64.1121 37.448C63.7921 37.448 63.5387 37.5653 63.3521 37.8C63.1654 38.0293 63.0721 38.3573 63.0721 38.784C63.0721 39.2053 63.1654 39.5333 63.3521 39.768C63.5387 39.9973 63.7921 40.112 64.1121 40.112C64.5654 40.112 64.8614 39.9093 65.0001 39.504H66.2081C66.0854 39.984 65.8427 40.3653 65.4801 40.648C65.1174 40.9307 64.6641 41.072 64.1201 41.072C63.6934 41.072 63.3147 40.9787 62.9841 40.792C62.6534 40.6 62.3947 40.3333 62.2081 39.992C62.0214 39.6453 61.9281 39.2427 61.9281 38.784ZM69.5246 36.504C69.8606 36.504 70.1592 36.5787 70.4206 36.728C70.6819 36.872 70.8846 37.088 71.0286 37.376C71.1779 37.6587 71.2526 38 71.2526 38.4V41H70.1326V38.552C70.1326 38.2 70.0446 37.9307 69.8686 37.744C69.6926 37.552 69.4526 37.456 69.1486 37.456C68.8392 37.456 68.5939 37.552 68.4126 37.744C68.2366 37.9307 68.1486 38.2 68.1486 38.552V41H67.0286V35.08H68.1486V37.12C68.2926 36.928 68.4846 36.7787 68.7246 36.672C68.9646 36.56 69.2312 36.504 69.5246 36.504ZM72.8856 36.04C72.6883 36.04 72.523 35.9787 72.3896 35.856C72.2616 35.728 72.1976 35.5707 72.1976 35.384C72.1976 35.1973 72.2616 35.0427 72.3896 34.92C72.523 34.792 72.6883 34.728 72.8856 34.728C73.083 34.728 73.2456 34.792 73.3736 34.92C73.507 35.0427 73.5736 35.1973 73.5736 35.384C73.5736 35.5707 73.507 35.728 73.3736 35.856C73.2456 35.9787 73.083 36.04 72.8856 36.04ZM73.4376 36.568V41H72.3176V36.568H73.4376ZM77.0002 36.504C77.5282 36.504 77.9549 36.672 78.2802 37.008C78.6055 37.3387 78.7682 37.8027 78.7682 38.4V41H77.6482V38.552C77.6482 38.2 77.5602 37.9307 77.3842 37.744C77.2082 37.552 76.9682 37.456 76.6642 37.456C76.3549 37.456 76.1095 37.552 75.9282 37.744C75.7522 37.9307 75.6642 38.2 75.6642 38.552V41H74.5442V36.568H75.6642V37.12C75.8135 36.928 76.0029 36.7787 76.2322 36.672C76.4669 36.56 76.7229 36.504 77.0002 36.504ZM81.5693 36.496C81.8999 36.496 82.1906 36.5627 82.4413 36.696C82.6919 36.824 82.8893 36.992 83.0333 37.2V36.568H84.1613V41.032C84.1613 41.4427 84.0786 41.808 83.9133 42.128C83.7479 42.4533 83.4999 42.7093 83.1693 42.896C82.8386 43.088 82.4386 43.184 81.9693 43.184C81.3399 43.184 80.8226 43.0373 80.4173 42.744C80.0173 42.4507 79.7906 42.0507 79.7373 41.544H80.8493C80.9079 41.7467 81.0333 41.9067 81.2253 42.024C81.4226 42.1467 81.6599 42.208 81.9373 42.208C82.2626 42.208 82.5266 42.1093 82.7293 41.912C82.9319 41.72 83.0333 41.4267 83.0333 41.032V40.344C82.8893 40.552 82.6893 40.7253 82.4333 40.864C82.1826 41.0027 81.8946 41.072 81.5693 41.072C81.1959 41.072 80.8546 40.976 80.5453 40.784C80.2359 40.592 79.9906 40.3227 79.8092 39.976C79.6332 39.624 79.5452 39.2213 79.5452 38.768C79.5452 38.32 79.6332 37.9227 79.8092 37.576C79.9906 37.2293 80.2333 36.9627 80.5373 36.776C80.8466 36.5893 81.1906 36.496 81.5693 36.496ZM83.0333 38.784C83.0333 38.512 82.9799 38.28 82.8733 38.088C82.7666 37.8907 82.6226 37.7413 82.4413 37.64C82.2599 37.5333 82.0653 37.48 81.8573 37.48C81.6493 37.48 81.4573 37.5307 81.2812 37.632C81.1053 37.7333 80.9613 37.8827 80.8493 38.08C80.7426 38.272 80.6893 38.5013 80.6893 38.768C80.6893 39.0347 80.7426 39.2693 80.8493 39.472C80.9613 39.6693 81.1053 39.8213 81.2812 39.928C81.4626 40.0347 81.6546 40.088 81.8573 40.088C82.0653 40.088 82.2599 40.0373 82.4413 39.936C82.6226 39.8293 82.7666 39.68 82.8733 39.488C82.9799 39.2907 83.0333 39.056 83.0333 38.784ZM90.5854 39.936H88.3614L87.9934 41H86.8174L88.8254 35.408H90.1294L92.1374 41H90.9534L90.5854 39.936ZM90.2814 39.04L89.4734 36.704L88.6654 39.04H90.2814ZM92.5999 38.768C92.5999 38.32 92.6879 37.9227 92.8639 37.576C93.0453 37.2293 93.2906 36.9627 93.5999 36.776C93.9093 36.5893 94.2533 36.496 94.6319 36.496C94.9199 36.496 95.1946 36.56 95.4559 36.688C95.7173 36.8107 95.9253 36.976 96.0799 37.184V35.08H97.2159V41H96.0799V40.344C95.9413 40.5627 95.7466 40.7387 95.4959 40.872C95.2453 41.0053 94.9546 41.072 94.6239 41.072C94.2506 41.072 93.9093 40.976 93.5999 40.784C93.2906 40.592 93.0453 40.3227 92.8639 39.976C92.6879 39.624 92.5999 39.2213 92.5999 38.768ZM96.0879 38.784C96.0879 38.512 96.0346 38.28 95.9279 38.088C95.8213 37.8907 95.6773 37.7413 95.4959 37.64C95.3146 37.5333 95.1199 37.48 94.9119 37.48C94.7039 37.48 94.5119 37.5307 94.3359 37.632C94.1599 37.7333 94.0159 37.8827 93.9039 38.08C93.7973 38.272 93.7439 38.5013 93.7439 38.768C93.7439 39.0347 93.7973 39.2693 93.9039 39.472C94.0159 39.6693 94.1599 39.8213 94.3359 39.928C94.5173 40.0347 94.7093 40.088 94.9119 40.088C95.1199 40.088 95.3146 40.0373 95.4959 39.936C95.6773 39.8293 95.8213 39.68 95.9279 39.488C96.0346 39.2907 96.0879 39.056 96.0879 38.784ZM103.814 36.504C104.358 36.504 104.795 36.672 105.126 37.008C105.462 37.3387 105.63 37.8027 105.63 38.4V41H104.51V38.552C104.51 38.2053 104.422 37.9413 104.246 37.76C104.07 37.5733 103.83 37.48 103.526 37.48C103.222 37.48 102.979 37.5733 102.798 37.76C102.622 37.9413 102.534 38.2053 102.534 38.552V41H101.414V38.552C101.414 38.2053 101.326 37.9413 101.15 37.76C100.974 37.5733 100.734 37.48 100.43 37.48C100.12 37.48 99.8751 37.5733 99.6938 37.76C99.5178 37.9413 99.4298 38.2053 99.4298 38.552V41H98.3098V36.568H99.4298V37.104C99.5738 36.9173 99.7578 36.7707 99.9818 36.664C100.211 36.5573 100.462 36.504 100.734 36.504C101.08 36.504 101.39 36.5787 101.662 36.728C101.934 36.872 102.144 37.08 102.294 37.352C102.438 37.096 102.646 36.8907 102.918 36.736C103.195 36.5813 103.494 36.504 103.814 36.504ZM107.261 36.04C107.063 36.04 106.898 35.9787 106.765 35.856C106.637 35.728 106.573 35.5707 106.573 35.384C106.573 35.1973 106.637 35.0427 106.765 34.92C106.898 34.792 107.063 34.728 107.261 34.728C107.458 34.728 107.621 34.792 107.749 34.92C107.882 35.0427 107.949 35.1973 107.949 35.384C107.949 35.5707 107.882 35.728 107.749 35.856C107.621 35.9787 107.458 36.04 107.261 36.04ZM107.813 36.568V41H106.693V36.568H107.813ZM110.615 41.072C110.253 41.072 109.927 41.008 109.639 40.88C109.351 40.7467 109.122 40.568 108.951 40.344C108.786 40.12 108.695 39.872 108.679 39.6H109.807C109.829 39.7707 109.911 39.912 110.055 40.024C110.205 40.136 110.389 40.192 110.607 40.192C110.821 40.192 110.986 40.1493 111.103 40.064C111.226 39.9787 111.287 39.8693 111.287 39.736C111.287 39.592 111.213 39.4853 111.063 39.416C110.919 39.3413 110.687 39.2613 110.367 39.176C110.037 39.096 109.765 39.0133 109.551 38.928C109.343 38.8427 109.162 38.712 109.007 38.536C108.858 38.36 108.783 38.1227 108.783 37.824C108.783 37.5787 108.853 37.3547 108.991 37.152C109.135 36.9493 109.338 36.7893 109.599 36.672C109.866 36.5547 110.178 36.496 110.535 36.496C111.063 36.496 111.485 36.6293 111.799 36.896C112.114 37.1573 112.287 37.512 112.319 37.96H111.247C111.231 37.784 111.157 37.6453 111.023 37.544C110.895 37.4373 110.722 37.384 110.503 37.384C110.301 37.384 110.143 37.4213 110.031 37.496C109.925 37.5707 109.871 37.6747 109.871 37.808C109.871 37.9573 109.946 38.072 110.095 38.152C110.245 38.2267 110.477 38.304 110.791 38.384C111.111 38.464 111.375 38.5467 111.583 38.632C111.791 38.7173 111.97 38.8507 112.119 39.032C112.274 39.208 112.354 39.4427 112.359 39.736C112.359 39.992 112.287 40.2213 112.143 40.424C112.005 40.6267 111.802 40.7867 111.535 40.904C111.274 41.016 110.967 41.072 110.615 41.072ZM114.975 41.072C114.612 41.072 114.287 41.008 113.999 40.88C113.711 40.7467 113.481 40.568 113.311 40.344C113.145 40.12 113.055 39.872 113.039 39.6H114.167C114.188 39.7707 114.271 39.912 114.415 40.024C114.564 40.136 114.748 40.192 114.967 40.192C115.18 40.192 115.345 40.1493 115.463 40.064C115.585 39.9787 115.647 39.8693 115.647 39.736C115.647 39.592 115.572 39.4853 115.423 39.416C115.279 39.3413 115.047 39.2613 114.727 39.176C114.396 39.096 114.124 39.0133 113.911 38.928C113.703 38.8427 113.521 38.712 113.367 38.536C113.217 38.36 113.143 38.1227 113.143 37.824C113.143 37.5787 113.212 37.3547 113.351 37.152C113.495 36.9493 113.697 36.7893 113.959 36.672C114.225 36.5547 114.537 36.496 114.895 36.496C115.423 36.496 115.844 36.6293 116.159 36.896C116.473 37.1573 116.647 37.512 116.679 37.96H115.607C115.591 37.784 115.516 37.6453 115.383 37.544C115.255 37.4373 115.081 37.384 114.863 37.384C114.66 37.384 114.503 37.4213 114.391 37.496C114.284 37.5707 114.231 37.6747 114.231 37.808C114.231 37.9573 114.305 38.072 114.455 38.152C114.604 38.2267 114.836 38.304 115.151 38.384C115.471 38.464 115.735 38.5467 115.943 38.632C116.151 38.7173 116.329 38.8507 116.479 39.032C116.633 39.208 116.713 39.4427 116.719 39.736C116.719 39.992 116.647 40.2213 116.503 40.424C116.364 40.6267 116.161 40.7867 115.895 40.904C115.633 41.016 115.327 41.072 114.975 41.072ZM118.206 36.04C118.009 36.04 117.843 35.9787 117.71 35.856C117.582 35.728 117.518 35.5707 117.518 35.384C117.518 35.1973 117.582 35.0427 117.71 34.92C117.843 34.792 118.009 34.728 118.206 34.728C118.403 34.728 118.566 34.792 118.694 34.92C118.827 35.0427 118.894 35.1973 118.894 35.384C118.894 35.5707 118.827 35.728 118.694 35.856C118.566 35.9787 118.403 36.04 118.206 36.04ZM118.758 36.568V41H117.638V36.568H118.758ZM121.833 41.072C121.406 41.072 121.022 40.9787 120.681 40.792C120.339 40.6 120.07 40.3307 119.873 39.984C119.681 39.6373 119.585 39.2373 119.585 38.784C119.585 38.3307 119.683 37.9307 119.881 37.584C120.083 37.2373 120.358 36.9707 120.705 36.784C121.051 36.592 121.438 36.496 121.865 36.496C122.291 36.496 122.678 36.592 123.025 36.784C123.371 36.9707 123.643 37.2373 123.841 37.584C124.043 37.9307 124.145 38.3307 124.145 38.784C124.145 39.2373 124.041 39.6373 123.832 39.984C123.63 40.3307 123.353 40.6 123.001 40.792C122.654 40.9787 122.265 41.072 121.833 41.072ZM121.833 40.096C122.035 40.096 122.225 40.048 122.401 39.952C122.582 39.8507 122.726 39.7013 122.833 39.504C122.939 39.3067 122.993 39.0667 122.993 38.784C122.993 38.3627 122.881 38.04 122.657 37.816C122.438 37.5867 122.169 37.472 121.849 37.472C121.529 37.472 121.259 37.5867 121.041 37.816C120.827 38.04 120.721 38.3627 120.721 38.784C120.721 39.2053 120.825 39.5307 121.033 39.76C121.246 39.984 121.513 40.096 121.833 40.096ZM127.422 36.504C127.95 36.504 128.377 36.672 128.702 37.008C129.027 37.3387 129.19 37.8027 129.19 38.4V41H128.07V38.552C128.07 38.2 127.982 37.9307 127.806 37.744C127.63 37.552 127.39 37.456 127.086 37.456C126.777 37.456 126.531 37.552 126.35 37.744C126.174 37.9307 126.086 38.2 126.086 38.552V41H124.966V36.568H126.086V37.12C126.235 36.928 126.425 36.7787 126.654 36.672C126.889 36.56 127.145 36.504 127.422 36.504ZM135.585 39.936H133.361L132.993 41H131.817L133.825 35.408H135.129L137.137 41H135.953L135.585 39.936ZM135.281 39.04L134.473 36.704L133.665 39.04H135.281ZM139.008 37.208C139.152 37.0053 139.349 36.8373 139.6 36.704C139.856 36.5653 140.147 36.496 140.472 36.496C140.851 36.496 141.192 36.5893 141.496 36.776C141.805 36.9627 142.048 37.2293 142.224 37.576C142.405 37.9173 142.496 38.3147 142.496 38.768C142.496 39.2213 142.405 39.624 142.224 39.976C142.048 40.3227 141.805 40.592 141.496 40.784C141.192 40.976 140.851 41.072 140.472 41.072C140.147 41.072 139.859 41.0053 139.608 40.872C139.363 40.7387 139.163 40.5707 139.008 40.368V43.112H137.888V36.568H139.008V37.208ZM141.352 38.768C141.352 38.5013 141.296 38.272 141.184 38.08C141.077 37.8827 140.933 37.7333 140.752 37.632C140.576 37.5307 140.384 37.48 140.176 37.48C139.973 37.48 139.781 37.5333 139.6 37.64C139.424 37.7413 139.28 37.8907 139.168 38.088C139.061 38.2853 139.008 38.5173 139.008 38.784C139.008 39.0507 139.061 39.2827 139.168 39.48C139.28 39.6773 139.424 39.8293 139.6 39.936C139.781 40.0373 139.973 40.088 140.176 40.088C140.384 40.088 140.576 40.0347 140.752 39.928C140.933 39.8213 141.077 39.6693 141.184 39.472C141.296 39.2747 141.352 39.04 141.352 38.768ZM144.43 37.208C144.574 37.0053 144.771 36.8373 145.022 36.704C145.278 36.5653 145.568 36.496 145.894 36.496C146.272 36.496 146.614 36.5893 146.918 36.776C147.227 36.9627 147.47 37.2293 147.646 37.576C147.827 37.9173 147.918 38.3147 147.918 38.768C147.918 39.2213 147.827 39.624 147.646 39.976C147.47 40.3227 147.227 40.592 146.918 40.784C146.614 40.976 146.272 41.072 145.894 41.072C145.568 41.072 145.28 41.0053 145.03 40.872C144.784 40.7387 144.584 40.5707 144.43 40.368V43.112H143.31V36.568H144.43V37.208ZM146.774 38.768C146.774 38.5013 146.718 38.272 146.606 38.08C146.499 37.8827 146.355 37.7333 146.174 37.632C145.998 37.5307 145.806 37.48 145.598 37.48C145.395 37.48 145.203 37.5333 145.022 37.64C144.846 37.7413 144.702 37.8907 144.59 38.088C144.483 38.2853 144.43 38.5173 144.43 38.784C144.43 39.0507 144.483 39.2827 144.59 39.48C144.702 39.6773 144.846 39.8293 145.022 39.936C145.203 40.0373 145.395 40.088 145.598 40.088C145.806 40.088 145.998 40.0347 146.174 39.928C146.355 39.8213 146.499 39.6693 146.606 39.472C146.718 39.2747 146.774 39.04 146.774 38.768Z" fill="#64439D"/>
</svg>
